# xmcd
#
# Track frame offsets:
#	150
#	14161
#	26187
#	36595
#	47097
#	59397
#	71568
#	84292
#	96275
#	106538
#
# Disc length: 1582 seconds
#
# Revision: 1
# Processed by: cddbd v1.5.2PL0 Copyright (c) Steve Scherf et al.
# Submitted via: audiograbber 1.83.01
#
DISCID=84062c0a
DTITLE=George Jones - George Jones With Love
DYEAR=1971
DGENRE=Country
TTITLE0=A Good Year For The Roses
TTITLE1=I'll Follow You (Up To Our Cloud)
TTITLE2=Playing Possum
TTITLE3=Try
TTITLE4=Going Life's Way
TTITLE5=I Know
TTITLE6=Divorce Or Destroy
TTITLE7=Loving You Makes You Mine
TTITLE8=A Day In The Life Of A Fool
TTITLE9=Never Grow Cold
EXTD=
EXTT0=
EXTT1=
EXTT2=
EXTT3=
EXTT4=
EXTT5=
EXTT6=
EXTT7=
EXTT8=
EXTT9=
PLAYORDER=
